<svg class="img-fluid" id="outputsvg" xmlns="http://www.w3.org/2000/svg" style="transform: none; cursor: move;" width="128" height="83.313" viewBox="0 0 1280 833.123"><g id="likx8agavuPfaNNK3UuTgS" fill="rgb(242,247,253)" style="transform: none;"><g style="transform: none;"><path id="p1EjuXBo5a" d="M28.52 547.817c-0.337 -0.561 -1.01 -0.786 -1.572 -0.449 -0.449 0.337 -1.46 -0.113 -2.134 -1.01 -1.01 -1.123 3.256 -2.92 22.119 -9.095 12.8 -4.154 24.253 -7.747 25.488 -7.972 6.063 -0.898 16.28 -3.031 21.221 -4.491 3.031 -0.898 8.534 -1.572 12.127 -1.572h6.513v7.298l-11.79 2.695c-7.186 1.684 -11.79 3.256 -11.79 4.154 0 1.684 -5.053 2.807 -30.316 7.074 -23.803 4.042 -29.081 4.604 -29.866 3.369"/></g></g><g id="l5WsSpjxfRnC9lBepF3Arp9" fill="rgb(227,236,250)" style="transform: none;"><g style="transform: none;"><path id="p3Hr3d2NF" d="M83.649 537.824c-0.337 -0.561 -2.134 -1.123 -4.042 -1.123 -3.144 0 -4.828 -1.796 -1.796 -2.021 3.705 -0.225 31.214 -7.972 28.52 -8.084 -1.684 0 -6.962 1.01 -11.79 2.245 -4.716 1.235 -10.442 2.358 -12.575 2.47 -2.134 0.225 -4.379 0.898 -4.828 1.46 -0.673 0.673 -1.123 0.673 -1.572 -0.225 -0.337 -1.01 -1.123 -1.123 -2.583 -0.337s-2.358 0.786 -2.807 0c-0.337 -0.673 0.561 -1.572 2.021 -2.134 4.266 -1.684 97.909 -31.887 202.891 -65.46 26.835 -8.646 59.958 -19.313 73.544 -23.691 13.586 -4.491 25.488 -7.972 26.386 -7.859s2.134 -0.561 2.695 -1.572c0.786 -1.46 1.123 -1.46 1.909 -0.225 1.46 2.358 1.235 4.379 -0.561 4.379 -0.898 0 -1.796 0.673 -2.134 1.46 -1.909 5.053 -178.863 63.551 -255.327 84.435 -3.93 1.123 -7.523 2.583 -8.197 3.369 -1.46 1.684 -2.021 1.796 12.351 -1.796 19.986 -4.941 84.323 -18.077 125.979 -25.712 33.123 -5.951 94.653 -15.72 99.93 -15.72 4.042 0 4.042 1.796 0.113 8.309 -2.245 3.593 -3.93 5.053 -5.614 5.165 -1.796 0 -2.358 -0.449 -1.909 -1.684 0.898 -2.245 0 -2.245 -19.313 1.684 -19.537 4.042 -87.13 16.842 -106.555 20.21 -7.41 1.347 -22.569 4.042 -33.684 6.176 -20.772 3.93 -28.407 5.277 -72.983 12.912 -29.418 5.053 -27.172 4.828 -28.07 3.369"/></g></g><g id="l2o5MuxureQ16kDfKZJgKTe" fill="rgb(251,231,102)" style="transform: none;"><g style="transform: none;"><path id="p1HVIbTHEj" d="M799.102 374.906c-4.266 -7.523 -7.523 -13.698 -7.298 -13.81s6.176 -0.898 13.249 -1.572 33.123 -3.481 57.825 -6.287c41.207 -4.716 61.53 -6.849 134.737 -14.709 14.259 -1.46 55.691 -5.838 92.07 -9.544 67.593 -6.962 134.962 -14.035 144.618 -15.27l5.277 -0.786v69.727l-30.541 0.113c-16.842 0.113 -71.073 0.673 -120.477 1.235 -49.404 0.673 -132.042 1.684 -183.579 2.245s-94.765 1.347 -96 1.684c-2.021 0.561 -3.369 -1.235 -9.88 -13.024"/></g></g><g id="l1dHfswbfJUUDHmba9tQTkv" fill="rgb(252,198,78)" style="transform: none;"><g style="transform: none;"><path id="p170xnUwMw" d="M788.211 355.481c-2.807 -4.941 -5.053 -9.544 -5.053 -10.217 0 -0.561 -0.786 -1.684 -1.684 -2.47 -1.123 -0.898 -1.347 -1.684 -0.561 -2.358 0.673 -0.673 15.72 -4.379 33.684 -8.421 43.004 -9.768 214.456 -47.607 247.579 -54.681 5.838 -1.347 16.28 -3.481 23.017 -5.053 6.849 -1.46 25.488 -5.502 41.544 -8.982s36.042 -7.859 44.351 -9.544c15.72 -3.369 51.761 -11.341 60.632 -13.361 2.807 -0.673 5.726 -1.235 6.513 -1.235 1.01 0 1.347 8.421 1.347 38.737v38.624l-3.593 0.673c-4.716 0.786 -58.835 6.513 -142.934 15.158 -36.379 3.705 -73.32 7.523 -81.965 8.534 -8.646 0.898 -30.091 3.144 -47.719 5.053 -34.919 3.593 -85.782 9.207 -132.491 14.484 -16.393 1.796 -31.551 3.593 -33.684 3.817 -3.93 0.337 -4.042 0.225 -8.982 -8.758"/></g></g><g id="l3YsaR7TJBTz1nwU2LiE77X" fill="rgb(51,184,237)" style="transform: none;"><g style="transform: none;"><path id="px1BFqBFc" d="M1226.667 532.548c-9.431 -2.245 -369.179 -82.077 -382.877 -84.996l-11.116 -2.358 -4.154 -7.186c-2.245 -4.042 -4.604 -7.523 -5.277 -7.747 -1.909 -0.561 -1.684 -3.593 0.225 -3.593 3.144 0 3.031 -2.134 -0.449 -8.309 -2.021 -3.481 -3.256 -6.737 -2.92 -7.298s-0.113 -1.235 -1.01 -1.684c-3.369 -1.235 -1.572 -2.92 3.144 -2.92 4.604 0 45.586 4.042 90.611 8.982 11.453 1.235 36.491 3.817 55.579 5.614 19.2 1.909 54.231 5.389 78.035 7.859 38.063 3.93 63.102 6.513 168.421 17.291l24.14 2.358 0.337 43.004 0.225 42.891 -3.031 -0.113c-1.796 -0.113 -6.176 -0.898 -9.88 -1.796"/><path id="pwxFoRaIe" d="M376.589 433.965c0.786 -2.245 41.207 -78.372 79.27 -149.333 16.28 -30.203 41.319 -77.249 55.916 -104.421 14.484 -27.172 30.765 -57.487 36.154 -67.368s15.27 -28.294 21.895 -40.983c6.737 -12.688 13.361 -24.702 14.934 -26.835 5.951 -8.084 18.302 -10.105 26.948 -4.379 4.379 2.92 2.807 0.337 47.719 81.74 13.137 23.803 46.26 83.649 69.277 125.193 26.723 48.393 35.032 63.551 34.694 63.888 -0.673 0.673 -246.344 80.73 -308.098 100.379 -44.351 14.259 -75.677 23.803 -77.586 23.803 -1.123 0 -1.572 -0.673 -1.123 -1.684"/></g></g><g id="l1NVGdtYosN1iVDuCDOLLTJ" fill="rgb(161,213,85)" style="transform: none;"><g style="transform: none;"><path id="p18IGTeXjS" d="M1211.509 449.684c-13.249 -1.46 -46.821 -4.941 -74.666 -7.747 -27.733 -2.807 -69.951 -7.186 -93.754 -9.656s-58.835 -5.951 -78.035 -7.859c-19.087 -1.796 -44.351 -4.379 -56.141 -5.726 -11.677 -1.235 -36.941 -3.93 -56.028 -5.838l-34.694 -3.593 -6.513 -11.79c-3.593 -6.4 -6.176 -12.127 -5.614 -12.688 0.449 -0.449 45.586 -1.46 100.154 -2.021 54.569 -0.673 151.579 -1.796 215.466 -2.583s116.547 -1.235 117.109 -1.01c0.449 0.225 0.786 16.842 0.786 36.941 0 33.909 -0.113 36.379 -1.909 36.267 -1.123 -0.113 -12.912 -1.347 -26.162 -2.695"/></g></g><g id="l7GepLtntMzswX0G80Q1ZbQ" fill="rgb(103,114,209)" style="transform: none;"><g style="transform: none;"><path id="p9obeJisE" d="M1232.281 617.319c-3.031 -1.235 -32.673 -11.79 -65.684 -23.579 -64.112 -22.68 -69.277 -24.59 -161.684 -57.038 -33.011 -11.677 -78.709 -27.733 -101.502 -35.818 -22.68 -8.084 -41.544 -14.709 -41.88 -14.709 -0.225 0 -0.113 1.01 0.225 2.245 0.561 1.796 0.225 2.245 -2.134 2.245 -1.572 0 -2.92 -0.449 -2.92 -0.898 0 -0.561 -5.053 -10.105 -11.228 -21.334 -8.309 -15.046 -11.228 -21.334 -11.228 -24.365 0 -3.481 0.225 -3.817 1.909 -2.807 1.123 0.673 6.513 2.134 12.127 3.256 7.747 1.572 342.456 75.79 383.214 84.884l8.084 1.909v44.239c0 24.365 -0.337 44.239 -0.786 44.127 -0.561 -0.113 -3.369 -1.123 -6.513 -2.358"/></g></g><g id="l2cQDvcZrdZ2LUgLiE9tDV0" fill="rgb(235,65,61)" style="transform: none;"><g style="transform: none;"><path id="p18K9i4f5e" d="M775.972 333.249c-3.144 -5.726 -6.962 -12.575 -8.534 -15.158l-2.92 -4.716 5.389 -1.684c7.41 -2.358 19.2 -6.513 30.652 -10.779 5.277 -1.909 15.383 -5.502 22.456 -7.859s21.221 -7.298 31.439 -11.004 21.334 -7.635 24.702 -8.646c5.726 -1.796 22.119 -7.635 31.439 -11.116 7.186 -2.695 11.677 -4.266 29.193 -10.33 9.544 -3.256 22.232 -7.747 28.07 -9.993s13.923 -5.053 17.852 -6.287c3.93 -1.347 14.035 -4.828 22.456 -7.972s24.59 -8.87 36.042 -12.688c11.453 -3.93 26.61 -9.207 33.684 -11.79s22.232 -7.859 33.684 -11.79 25.038 -8.758 30.316 -10.666 12.351 -4.491 15.72 -5.614c33.235 -11.341 44.688 -15.383 60.632 -21.221 10.217 -3.817 19.2 -6.849 19.986 -6.849 1.123 0 1.347 9.993 1.123 47.944l-0.337 47.944 -3.93 0.898c-2.134 0.449 -13.249 2.92 -24.702 5.389 -11.453 2.583 -27.621 6.063 -35.93 7.859 -8.309 1.684 -28.294 6.063 -44.351 9.544s-34.694 7.523 -41.544 8.982c-6.737 1.572 -17.179 3.705 -23.017 5.053 -38.4 8.197 -240.056 52.772 -264.197 58.386 -10.442 2.47 -19.2 4.491 -19.424 4.491 -0.113 0 -2.807 -4.716 -5.951 -10.33"/></g></g><g id="l2UrelrFBl9urA4fJ5aPqUW" fill="rgb(24,60,103)" style="transform: none;"><g style="transform: none;"><path id="pkF2WyvnT" d="M759.018 786.077c-10.555 -3.256 -14.372 -7.859 -25.937 -30.652 -8.982 -18.077 -42.554 -83.537 -59.284 -115.649 -4.716 -9.095 -9.207 -16.617 -9.88 -16.617 -0.786 0 -1.46 -0.786 -1.46 -1.684 0 -1.347 1.684 -1.684 8.534 -1.684h8.534l-1.684 -2.583c-0.898 -1.347 -5.389 -9.319 -9.993 -17.628 -4.716 -8.309 -11.902 -21.221 -16.056 -28.631 -4.266 -7.41 -8.758 -15.495 -10.105 -17.965s-6.962 -12.575 -12.575 -22.456 -13.137 -23.466 -16.842 -30.316c-8.646 -15.607 -14.148 -25.375 -21.445 -37.951 -6.962 -11.79 -7.298 -13.923 -2.134 -14.709 11.116 -1.684 117.221 -11.79 147.874 -14.148 7.747 -0.561 22.68 -1.796 33.123 -2.695 38.962 -3.256 53.895 -4.379 56.028 -3.93 1.796 0.337 8.534 10.33 11.79 17.291 1.01 2.358 7.074 13.361 36.042 65.684 6.287 11.453 18.639 33.684 27.284 49.404 47.831 87.017 96 174.484 100.154 181.894 9.656 17.179 12.912 24.477 12.912 29.418 0 6.513 -3.369 11.79 -9.319 14.372 -4.604 2.134 -8.646 2.245 -123.734 2.134 -65.46 0 -120.252 -0.449 -121.825 -0.898"/></g></g><g id="l4OKPx0IeZG0goXLRNiD1qZ" fill="rgb(16,50,91)" style="transform: none;"><g style="transform: none;"><path id="pNXZ9qGVa" d="M211.537 785.291c-1.909 -0.898 -4.941 -3.256 -6.737 -5.053 -3.031 -3.144 -3.256 -4.042 -3.256 -11.453l0.113 -8.084 26.723 -49.965c14.709 -27.509 38.962 -72.645 53.782 -100.491 14.821 -27.733 32.112 -60.07 38.4 -71.859 6.287 -11.677 15.046 -28.183 19.424 -36.491s8.758 -16.169 9.656 -17.404c1.572 -2.245 10.217 -3.93 43.902 -8.87 6.176 -0.898 23.355 -3.705 38.175 -6.176 26.948 -4.491 39.972 -6.4 86.456 -12.463 13.586 -1.796 34.358 -4.604 46.035 -6.063 11.79 -1.572 21.895 -2.92 22.569 -2.92s2.358 2.134 3.817 4.716c1.46 2.695 4.716 8.421 7.298 12.688 2.583 4.379 7.41 12.912 10.891 19.087s12.463 22.344 19.986 35.93c7.635 13.586 14.934 26.723 16.28 29.193s5.838 10.555 10.105 17.965c4.154 7.41 11.228 20.098 15.72 28.07 4.491 8.084 9.656 17.067 11.677 20.098 1.909 3.144 3.481 6.063 3.481 6.625 0 0.786 -22.232 0.898 -60.407 0.449 -33.347 -0.337 -60.968 -0.225 -61.53 0.113 -0.673 0.449 -18.189 34.358 -39.074 75.453s-39.298 76.463 -40.983 78.597 -5.389 5.165 -8.084 6.737l-4.941 2.807 -128 0.225c-113.74 0.225 -128.337 0.113 -131.481 -1.46"/></g></g></svg>