<svg class="img-fluid" id="outputsvg" xmlns="http://www.w3.org/2000/svg" style="transform: none; cursor: move;" width="153.639" height="100" viewBox="0 0 1536.39 1000.001"><g id="likx8agavuPfaNNK3UuTgS" fill="rgb(242,247,253)" style="transform: none;"><g style="transform: none;"><path id="p1EjuXBo5a" d="M34.232 657.548c-0.404 -0.674 -1.213 -0.943 -1.887 -0.539 -0.539 0.404 -1.752 -0.135 -2.561 -1.213 -1.213 -1.348 3.908 -3.504 26.55 -10.916 15.364 -4.987 29.111 -9.299 30.593 -9.569 7.278 -1.078 19.542 -3.639 25.472 -5.391 3.639 -1.078 10.243 -1.887 14.555 -1.887h7.817v8.76l-14.151 3.235c-8.625 2.022 -14.151 3.908 -14.151 4.987 0 2.022 -6.065 3.369 -36.388 8.491 -28.571 4.852 -34.906 5.526 -35.849 4.043"/></g></g><g id="l5WsSpjxfRnC9lBepF3Arp9" fill="rgb(227,236,250)" style="transform: none;"><g style="transform: none;"><path id="p3Hr3d2NF" d="M100.404 645.553c-0.404 -0.674 -2.561 -1.348 -4.852 -1.348 -3.774 0 -5.795 -2.156 -2.156 -2.426 4.447 -0.27 37.466 -9.569 34.232 -9.704 -2.022 0 -8.356 1.213 -14.151 2.695 -5.66 1.482 -12.534 2.83 -15.094 2.965 -2.561 0.27 -5.256 1.078 -5.795 1.752 -0.809 0.809 -1.348 0.809 -1.887 -0.27 -0.404 -1.213 -1.348 -1.348 -3.1 -0.404s-2.83 0.943 -3.369 0c-0.404 -0.809 0.674 -1.887 2.426 -2.561 5.121 -2.022 117.52 -38.275 243.531 -78.572 32.21 -10.377 71.968 -23.181 88.275 -28.437 16.307 -5.391 30.593 -9.569 31.671 -9.434s2.561 -0.674 3.235 -1.887c0.943 -1.752 1.348 -1.752 2.291 -0.27 1.752 2.83 1.482 5.256 -0.674 5.256 -1.078 0 -2.156 0.809 -2.561 1.752 -2.291 6.065 -214.69 76.28 -306.469 101.348 -4.717 1.348 -9.03 3.1 -9.838 4.043 -1.752 2.022 -2.426 2.156 14.825 -2.156 23.989 -5.93 101.213 -21.698 151.213 -30.863 39.757 -7.143 113.612 -18.868 119.946 -18.868 4.852 0 4.852 2.156 0.135 9.973 -2.695 4.313 -4.717 6.065 -6.739 6.199 -2.156 0 -2.83 -0.539 -2.291 -2.022 1.078 -2.695 0 -2.695 -23.181 2.022 -23.45 4.852 -104.582 20.216 -127.898 24.259 -8.895 1.617 -27.089 4.852 -40.431 7.412 -24.933 4.717 -34.097 6.334 -87.601 15.499 -35.31 6.065 -32.615 5.795 -33.693 4.043"/></g></g><g id="l2o5MuxureQ16kDfKZJgKTe" fill="rgb(251,231,102)" style="transform: none;"><g style="transform: none;"><path id="p1HVIbTHEj" d="M959.166 450.001c-5.121 -9.03 -9.03 -16.442 -8.76 -16.577s7.412 -1.078 15.903 -1.887 39.757 -4.178 69.407 -7.547c49.461 -5.66 73.855 -8.221 161.725 -17.655 17.116 -1.752 66.846 -7.008 110.512 -11.456 81.132 -8.356 161.995 -16.846 173.585 -18.329l6.334 -0.943v83.693l-36.658 0.135c-20.216 0.135 -85.31 0.809 -144.609 1.482 -59.299 0.809 -158.491 2.022 -220.351 2.695s-113.747 1.617 -115.229 2.022c-2.426 0.674 -4.043 -1.482 -11.86 -15.633"/></g></g><g id="l1dHfswbfJUUDHmba9tQTkv" fill="rgb(252,198,78)" style="transform: none;"><g style="transform: none;"><path id="p170xnUwMw" d="M946.093 426.685c-3.369 -5.93 -6.065 -11.456 -6.065 -12.264 0 -0.674 -0.943 -2.022 -2.022 -2.965 -1.348 -1.078 -1.617 -2.022 -0.674 -2.83 0.809 -0.809 18.868 -5.256 40.431 -10.108 51.617 -11.725 257.413 -57.143 297.17 -65.634 7.008 -1.617 19.542 -4.178 27.628 -6.065 8.221 -1.752 30.593 -6.604 49.865 -10.782s43.262 -9.434 53.235 -11.456c18.868 -4.043 62.129 -13.612 72.776 -16.038 3.369 -0.809 6.873 -1.482 7.817 -1.482 1.213 0 1.617 10.108 1.617 46.496v46.361l-4.313 0.809c-5.66 0.943 -70.62 7.817 -171.564 18.194 -43.666 4.447 -88.005 9.03 -98.383 10.243 -10.377 1.078 -36.119 3.774 -57.278 6.065 -41.914 4.313 -102.965 11.051 -159.03 17.385 -19.677 2.156 -37.871 4.313 -40.431 4.582 -4.717 0.404 -4.852 0.27 -10.782 -10.512"/></g></g><g id="l3YsaR7TJBTz1nwU2LiE77X" fill="rgb(51,184,237)" style="transform: none;"><g style="transform: none;"><path id="px1BFqBFc" d="M1472.374 639.219c-11.321 -2.695 -443.127 -98.518 -459.569 -102.022l-13.342 -2.83 -4.987 -8.625c-2.695 -4.852 -5.526 -9.03 -6.334 -9.299 -2.291 -0.674 -2.022 -4.313 0.27 -4.313 3.774 0 3.639 -2.561 -0.539 -9.973 -2.426 -4.178 -3.908 -8.086 -3.504 -8.76s-0.135 -1.482 -1.213 -2.022c-4.043 -1.482 -1.887 -3.504 3.774 -3.504 5.526 0 54.717 4.852 108.76 10.782 13.747 1.482 43.801 4.582 66.712 6.739 23.046 2.291 65.094 6.469 93.666 9.434 45.687 4.717 75.741 7.817 202.157 20.755l28.976 2.83 0.404 51.617 0.27 51.483 -3.639 -0.135c-2.156 -0.135 -7.412 -1.078 -11.86 -2.156"/><path id="pwxFoRaIe" d="M452.022 520.89c0.943 -2.695 49.461 -94.07 95.148 -179.246 19.542 -36.253 49.596 -92.722 67.116 -125.337 17.385 -32.615 36.927 -69.003 43.396 -80.863s18.329 -33.962 26.28 -49.191c8.086 -15.229 16.038 -29.65 17.925 -32.21 7.143 -9.704 21.968 -12.129 32.345 -5.256 5.256 3.504 3.369 0.404 57.278 98.113 15.768 28.571 55.526 100.404 83.154 150.27 32.076 58.086 42.049 76.28 41.644 76.685 -0.809 0.809 -295.688 96.9 -369.812 120.485 -53.235 17.116 -90.836 28.571 -93.127 28.571 -1.348 0 -1.887 -0.809 -1.348 -2.022"/></g></g><g id="l1NVGdtYosN1iVDuCDOLLTJ" fill="rgb(161,213,85)" style="transform: none;"><g style="transform: none;"><path id="p18IGTeXjS" d="M1454.18 539.758c-15.903 -1.752 -56.2 -5.93 -89.623 -9.299 -33.288 -3.369 -83.962 -8.625 -112.534 -11.59s-70.62 -7.143 -93.666 -9.434c-22.911 -2.156 -53.235 -5.256 -67.386 -6.873 -14.016 -1.482 -44.34 -4.717 -67.251 -7.008l-41.644 -4.313 -7.817 -14.151c-4.313 -7.682 -7.412 -14.555 -6.739 -15.229 0.539 -0.539 54.717 -1.752 120.216 -2.426 65.499 -0.809 181.941 -2.156 258.626 -3.1s139.892 -1.482 140.566 -1.213c0.539 0.27 0.943 20.216 0.943 44.34 0 40.701 -0.135 43.666 -2.291 43.531 -1.348 -0.135 -15.499 -1.617 -31.402 -3.235"/></g></g><g id="l7GepLtntMzswX0G80Q1ZbQ" fill="rgb(103,114,209)" style="transform: none;"><g style="transform: none;"><path id="p9obeJisE" d="M1479.112 740.971c-3.639 -1.482 -39.218 -14.151 -78.841 -28.302 -76.954 -27.224 -83.154 -29.515 -194.07 -68.464 -39.623 -14.016 -94.475 -33.288 -121.833 -42.992 -27.224 -9.704 -49.865 -17.655 -50.27 -17.655 -0.27 0 -0.135 1.213 0.27 2.695 0.674 2.156 0.27 2.695 -2.561 2.695 -1.887 0 -3.504 -0.539 -3.504 -1.078 0 -0.674 -6.065 -12.129 -13.477 -25.607 -9.973 -18.059 -13.477 -25.607 -13.477 -29.245 0 -4.178 0.27 -4.582 2.291 -3.369 1.348 0.809 7.817 2.561 14.555 3.908 9.299 1.887 411.052 90.97 459.974 101.887l9.704 2.291v53.1c0 29.245 -0.404 53.1 -0.943 52.965 -0.674 -0.135 -4.043 -1.348 -7.817 -2.83"/></g></g><g id="l2cQDvcZrdZ2LUgLiE9tDV0" fill="rgb(235,65,61)" style="transform: none;"><g style="transform: none;"><path id="p18K9i4f5e" d="M931.403 400c-3.774 -6.873 -8.356 -15.094 -10.243 -18.194l-3.504 -5.66 6.469 -2.022c8.895 -2.83 23.046 -7.817 36.792 -12.938 6.334 -2.291 18.464 -6.604 26.954 -9.434s25.472 -8.76 37.736 -13.208 25.607 -9.164 29.65 -10.377c6.873 -2.156 26.55 -9.164 37.736 -13.342 8.625 -3.235 14.016 -5.121 35.04 -12.399 11.456 -3.908 26.685 -9.299 33.693 -11.995s16.712 -6.065 21.429 -7.547c4.717 -1.617 16.846 -5.795 26.954 -9.569s29.515 -10.647 43.262 -15.229c13.747 -4.717 31.941 -11.051 40.431 -14.151s26.685 -9.434 40.431 -14.151 30.054 -10.512 36.388 -12.803 14.825 -5.391 18.868 -6.739c39.892 -13.612 53.639 -18.464 72.776 -25.472 12.264 -4.582 23.046 -8.221 23.989 -8.221 1.348 0 1.617 11.995 1.348 57.547l-0.404 57.547 -4.717 1.078c-2.561 0.539 -15.903 3.504 -29.65 6.469 -13.747 3.1 -33.154 7.278 -43.127 9.434 -9.973 2.022 -33.962 7.278 -53.235 11.456s-41.644 9.03 -49.865 10.782c-8.086 1.887 -20.62 4.447 -27.628 6.065 -46.092 9.838 -288.141 63.342 -317.116 70.081 -12.534 2.965 -23.046 5.391 -23.315 5.391 -0.135 0 -3.369 -5.66 -7.143 -12.399"/></g></g><g id="l2UrelrFBl9urA4fJ5aPqUW" fill="rgb(24,60,103)" style="transform: none;"><g style="transform: none;"><path id="pkF2WyvnT" d="M911.052 943.532c-12.668 -3.908 -17.251 -9.434 -31.132 -36.792 -10.782 -21.698 -51.078 -100.27 -71.159 -138.814 -5.66 -10.916 -11.051 -19.946 -11.86 -19.946 -0.943 0 -1.752 -0.943 -1.752 -2.022 0 -1.617 2.022 -2.022 10.243 -2.022h10.243l-2.022 -3.1c-1.078 -1.617 -6.469 -11.186 -11.995 -21.159 -5.66 -9.973 -14.286 -25.472 -19.272 -34.367 -5.121 -8.895 -10.512 -18.598 -12.129 -21.563s-8.356 -15.094 -15.094 -26.954 -15.768 -28.167 -20.216 -36.388c-10.377 -18.733 -16.981 -30.458 -25.741 -45.553 -8.356 -14.151 -8.76 -16.712 -2.561 -17.655 13.342 -2.022 140.701 -14.151 177.493 -16.981 9.299 -0.674 27.224 -2.156 39.757 -3.235 46.766 -3.908 64.69 -5.256 67.251 -4.717 2.156 0.404 10.243 12.399 14.151 20.755 1.213 2.83 8.491 16.038 43.262 78.841 7.547 13.747 22.372 40.431 32.749 59.299 57.412 104.448 115.229 209.434 120.216 218.329 11.59 20.62 15.499 29.38 15.499 35.31 0 7.817 -4.043 14.151 -11.186 17.251 -5.526 2.561 -10.377 2.695 -148.518 2.561 -78.572 0 -144.34 -0.539 -146.227 -1.078"/></g></g><g id="l4OKPx0IeZG0goXLRNiD1qZ" fill="rgb(16,50,91)" style="transform: none;"><g style="transform: none;"><path id="pNXZ9qGVa" d="M253.909 942.589c-2.291 -1.078 -5.93 -3.908 -8.086 -6.065 -3.639 -3.774 -3.908 -4.852 -3.908 -13.747l0.135 -9.704 32.076 -59.973c17.655 -33.019 46.766 -87.197 64.555 -120.62 17.79 -33.288 38.545 -72.103 46.092 -86.253 7.547 -14.016 18.059 -33.828 23.315 -43.801s10.512 -19.407 11.59 -20.89c1.887 -2.695 12.264 -4.717 52.695 -10.647 7.412 -1.078 28.032 -4.447 45.822 -7.412 32.345 -5.391 47.978 -7.682 103.774 -14.96 16.307 -2.156 41.24 -5.526 55.256 -7.278 14.151 -1.887 26.28 -3.504 27.089 -3.504s2.83 2.561 4.582 5.66c1.752 3.235 5.66 10.108 8.76 15.229 3.1 5.256 8.895 15.499 13.073 22.911s14.96 26.819 23.989 43.127c9.164 16.307 17.925 32.076 19.542 35.04s7.008 12.668 12.129 21.563c4.987 8.895 13.477 24.124 18.868 33.693 5.391 9.704 11.59 20.485 14.016 24.124 2.291 3.774 4.178 7.278 4.178 7.951 0 0.943 -26.685 1.078 -72.507 0.539 -40.027 -0.404 -73.181 -0.27 -73.855 0.135 -0.809 0.539 -21.833 41.24 -46.9 90.566s-47.17 91.779 -49.191 94.34 -6.469 6.199 -9.704 8.086l-5.93 3.369 -153.639 0.27c-136.523 0.27 -154.043 0.135 -157.817 -1.752"/></g></g></svg>