<svg class="img-fluid" id="outputsvg" xmlns="http://www.w3.org/2000/svg" style="transform: none; cursor: move;" width="55.31" height="36" viewBox="0 0 553.1 360"><g id="likx8agavuPfaNNK3UuTgS" fill="rgb(242,247,253)" style="transform: none;"><g style="transform: none;"><path id="p1EjuXBo5a" d="M12.324 236.717c-0.145 -0.243 -0.437 -0.339 -0.679 -0.194 -0.194 0.145 -0.631 -0.049 -0.922 -0.437 -0.437 -0.485 1.407 -1.261 9.558 -3.93 5.531 -1.795 10.48 -3.348 11.013 -3.445 2.62 -0.388 7.035 -1.31 9.17 -1.941 1.31 -0.388 3.687 -0.679 5.24 -0.679h2.814v3.154l-5.094 1.165c-3.105 0.728 -5.094 1.407 -5.094 1.795 0 0.728 -2.183 1.213 -13.1 3.057 -10.286 1.747 -12.566 1.989 -12.906 1.455"/></g></g><g id="l5WsSpjxfRnC9lBepF3Arp9" fill="rgb(227,236,250)" style="transform: none;"><g style="transform: none;"><path id="p3Hr3d2NF" d="M36.145 232.399c-0.145 -0.243 -0.922 -0.485 -1.747 -0.485 -1.359 0 -2.086 -0.776 -0.776 -0.873 1.601 -0.097 13.488 -3.445 12.324 -3.493 -0.728 0 -3.008 0.437 -5.094 0.97 -2.038 0.534 -4.512 1.019 -5.434 1.067 -0.922 0.097 -1.892 0.388 -2.086 0.631 -0.291 0.291 -0.485 0.291 -0.679 -0.097 -0.145 -0.437 -0.485 -0.485 -1.116 -0.145s-1.019 0.339 -1.213 0c-0.145 -0.291 0.243 -0.679 0.873 -0.922 1.844 -0.728 42.307 -13.779 87.671 -28.286 11.596 -3.736 25.908 -8.345 31.779 -10.237 5.871 -1.941 11.013 -3.445 11.402 -3.396s0.922 -0.243 1.165 -0.679c0.339 -0.631 0.485 -0.631 0.825 -0.097 0.631 1.019 0.534 1.892 -0.243 1.892 -0.388 0 -0.776 0.291 -0.922 0.631 -0.825 2.183 -77.288 27.461 -110.329 36.485 -1.698 0.485 -3.251 1.116 -3.542 1.455 -0.631 0.728 -0.873 0.776 5.337 -0.776 8.636 -2.135 36.437 -7.811 54.437 -11.111 14.313 -2.571 40.9 -6.792 43.181 -6.792 1.747 0 1.747 0.776 0.049 3.59 -0.97 1.553 -1.698 2.183 -2.426 2.232 -0.776 0 -1.019 -0.194 -0.825 -0.728 0.388 -0.97 0 -0.97 -8.345 0.728 -8.442 1.747 -37.649 7.278 -46.043 8.733 -3.202 0.582 -9.752 1.747 -14.555 2.668 -8.976 1.698 -12.275 2.28 -31.536 5.58 -12.712 2.183 -11.741 2.086 -12.129 1.455"/></g></g><g id="l2o5MuxureQ16kDfKZJgKTe" fill="rgb(251,231,102)" style="transform: none;"><g style="transform: none;"><path id="p1HVIbTHEj" d="M345.3 162c-1.844 -3.251 -3.251 -5.919 -3.154 -5.968s2.668 -0.388 5.725 -0.679 14.313 -1.504 24.987 -2.717c17.806 -2.038 26.588 -2.96 58.221 -6.356 6.162 -0.631 24.065 -2.523 39.784 -4.124 29.207 -3.008 58.318 -6.065 62.491 -6.598l2.28 -0.339V165.348l-13.197 0.049c-7.278 0.049 -30.712 0.291 -52.059 0.534 -21.348 0.291 -57.057 0.728 -79.326 0.97s-40.949 0.582 -41.482 0.728c-0.873 0.243 -1.455 -0.534 -4.27 -5.628"/></g></g><g id="l1dHfswbfJUUDHmba9tQTkv" fill="rgb(252,198,78)" style="transform: none;"><g style="transform: none;"><path id="p170xnUwMw" d="M340.593 153.606c-1.213 -2.135 -2.183 -4.124 -2.183 -4.415 0 -0.243 -0.339 -0.728 -0.728 -1.067 -0.485 -0.388 -0.582 -0.728 -0.243 -1.019 0.291 -0.291 6.792 -1.892 14.555 -3.639 18.582 -4.221 92.669 -20.571 106.981 -23.628 2.523 -0.582 7.035 -1.504 9.946 -2.183 2.96 -0.631 11.013 -2.377 17.951 -3.882s15.574 -3.396 19.165 -4.124c6.792 -1.455 22.366 -4.9 26.199 -5.774 1.213 -0.291 2.474 -0.534 2.814 -0.534 0.437 0 0.582 3.639 0.582 16.739v16.69l-1.553 0.291c-2.038 0.339 -25.423 2.814 -61.763 6.55 -15.72 1.601 -31.682 3.251 -35.418 3.687a5500.796 5500.796 0 0 0 -20.62 2.183c-15.089 1.553 -37.067 3.978 -57.251 6.259 -7.084 0.776 -13.634 1.553 -14.555 1.65 -1.698 0.145 -1.747 0.097 -3.882 -3.784"/></g></g><g id="l3YsaR7TJBTz1nwU2LiE77X" fill="rgb(51,184,237)" style="transform: none;"><g style="transform: none;"><path id="px1BFqBFc" d="M530.054 230.119c-4.076 -0.97 -159.526 -35.466 -165.445 -36.728l-4.803 -1.019 -1.795 -3.105c-0.97 -1.747 -1.989 -3.251 -2.28 -3.348 -0.825 -0.243 -0.728 -1.553 0.097 -1.553 1.359 0 1.31 -0.922 -0.194 -3.59 -0.873 -1.504 -1.407 -2.911 -1.261 -3.154s-0.049 -0.534 -0.437 -0.728c-1.455 -0.534 -0.679 -1.261 1.359 -1.261 1.989 0 19.698 1.747 39.154 3.882 4.949 0.534 15.768 1.65 24.016 2.426 8.297 0.825 23.434 2.329 33.72 3.396 16.447 1.698 27.267 2.814 72.776 7.472l10.431 1.019 0.145 18.582 0.097 18.534 -1.31 -0.049c-0.776 -0.049 -2.668 -0.388 -4.27 -0.776"/><path id="pwxFoRaIe" d="M162.728 187.52c0.339 -0.97 17.806 -33.865 34.253 -64.529 7.035 -13.051 17.855 -33.38 24.162 -45.121 6.259 -11.741 13.294 -24.841 15.623 -29.111s6.598 -12.226 9.461 -17.709c2.911 -5.482 5.774 -10.674 6.453 -11.596 2.571 -3.493 7.908 -4.366 11.644 -1.892 1.892 1.261 1.213 0.145 20.62 35.321 5.676 10.286 19.989 36.145 29.935 54.097 11.547 20.911 15.138 27.461 14.992 27.607 -0.291 0.291 -106.448 34.884 -133.132 43.375 -19.165 6.162 -32.701 10.286 -33.526 10.286 -0.485 0 -0.679 -0.291 -0.485 -0.728"/></g></g><g id="l1NVGdtYosN1iVDuCDOLLTJ" fill="rgb(161,213,85)" style="transform: none;"><g style="transform: none;"><path id="p18IGTeXjS" d="M523.504 194.313c-5.725 -0.631 -20.232 -2.135 -32.264 -3.348 -11.984 -1.213 -30.226 -3.105 -40.512 -4.172s-25.423 -2.571 -33.72 -3.396c-8.248 -0.776 -19.165 -1.892 -24.259 -2.474 -5.046 -0.534 -15.962 -1.698 -24.21 -2.523l-14.992 -1.553 -2.814 -5.094c-1.553 -2.766 -2.668 -5.24 -2.426 -5.482 0.194 -0.194 19.698 -0.631 43.278 -0.873 23.58 -0.291 65.499 -0.776 93.105 -1.116s50.361 -0.534 50.604 -0.437c0.194 0.097 0.339 7.278 0.339 15.962 0 14.652 -0.049 15.72 -0.825 15.671 -0.485 -0.049 -5.58 -0.582 -11.305 -1.165"/></g></g><g id="l7GepLtntMzswX0G80Q1ZbQ" fill="rgb(103,114,209)" style="transform: none;"><g style="transform: none;"><path id="p9obeJisE" d="M532.48 266.749c-1.31 -0.534 -14.118 -5.094 -28.383 -10.189 -27.703 -9.801 -29.935 -10.625 -69.865 -24.647 -14.264 -5.046 -34.011 -11.984 -43.86 -15.477 -9.801 -3.493 -17.951 -6.356 -18.097 -6.356 -0.097 0 -0.049 0.437 0.097 0.97 0.243 0.776 0.097 0.97 -0.922 0.97 -0.679 0 -1.261 -0.194 -1.261 -0.388 0 -0.243 -2.183 -4.366 -4.852 -9.219 -3.59 -6.501 -4.852 -9.219 -4.852 -10.528 0 -1.504 0.097 -1.65 0.825 -1.213 0.485 0.291 2.814 0.922 5.24 1.407 3.348 0.679 147.979 32.749 165.591 36.679l3.493 0.825v19.116c0 10.528 -0.145 19.116 -0.339 19.067 -0.243 -0.049 -1.455 -0.485 -2.814 -1.019"/></g></g><g id="l2cQDvcZrdZ2LUgLiE9tDV0" fill="rgb(235,65,61)" style="transform: none;"><g style="transform: none;"><path id="p18K9i4f5e" d="M335.305 144c-1.359 -2.474 -3.008 -5.434 -3.687 -6.55l-1.261 -2.038 2.329 -0.728c3.202 -1.019 8.297 -2.814 13.245 -4.658 2.28 -0.825 6.647 -2.377 9.703 -3.396s9.17 -3.154 13.585 -4.755 9.219 -3.299 10.674 -3.736c2.474 -0.776 9.558 -3.299 13.585 -4.803 3.105 -1.165 5.046 -1.844 12.614 -4.464 4.124 -1.407 9.607 -3.348 12.129 -4.318s6.016 -2.183 7.714 -2.717c1.698 -0.582 6.065 -2.086 9.703 -3.445s10.625 -3.833 15.574 -5.482c4.949 -1.698 11.499 -3.978 14.555 -5.094s9.607 -3.396 14.555 -5.094 10.819 -3.784 13.1 -4.609 5.337 -1.941 6.792 -2.426c14.361 -4.9 19.31 -6.647 26.199 -9.17 4.415 -1.65 8.297 -2.96 8.636 -2.96 0.485 0 0.582 4.318 0.485 20.717l-0.145 20.717 -1.698 0.388c-0.922 0.194 -5.725 1.261 -10.674 2.329 -4.949 1.116 -11.935 2.62 -15.526 3.396 -3.59 0.728 -12.226 2.62 -19.165 4.124s-14.992 3.251 -17.951 3.882c-2.911 0.679 -7.423 1.601 -9.946 2.183 -16.593 3.542 -103.731 22.803 -114.162 25.229 -4.512 1.067 -8.297 1.941 -8.393 1.941 -0.049 0 -1.213 -2.038 -2.571 -4.464"/></g></g><g id="l2UrelrFBl9urA4fJ5aPqUW" fill="rgb(24,60,103)" style="transform: none;"><g style="transform: none;"><path id="pkF2WyvnT" d="M327.978 339.671c-4.56 -1.407 -6.21 -3.396 -11.208 -13.245 -3.882 -7.811 -18.388 -36.097 -25.617 -49.973 -2.038 -3.93 -3.978 -7.181 -4.27 -7.181 -0.339 0 -0.631 -0.339 -0.631 -0.728 0 -0.582 0.728 -0.728 3.687 -0.728h3.687l-0.728 -1.116c-0.388 -0.582 -2.329 -4.027 -4.318 -7.617 -2.038 -3.59 -5.143 -9.17 -6.938 -12.372 -1.844 -3.202 -3.784 -6.695 -4.366 -7.763s-3.008 -5.434 -5.434 -9.703 -5.676 -10.14 -7.278 -13.1c-3.736 -6.744 -6.113 -10.965 -9.267 -16.399 -3.008 -5.094 -3.154 -6.016 -0.922 -6.356 4.803 -0.728 50.652 -5.094 63.897 -6.113 3.348 -0.243 9.801 -0.776 14.313 -1.165 16.836 -1.407 23.288 -1.892 24.21 -1.698 0.776 0.145 3.687 4.464 5.094 7.472 0.437 1.019 3.057 5.774 15.574 28.383 2.717 4.949 8.054 14.555 11.79 21.348 20.668 37.601 41.482 75.396 43.278 78.598 4.172 7.423 5.58 10.577 5.58 12.712 0 2.814 -1.455 5.094 -4.027 6.21 -1.989 0.922 -3.736 0.97 -53.466 0.922 -28.286 0 -51.962 -0.194 -52.642 -0.388"/></g></g><g id="l4OKPx0IeZG0goXLRNiD1qZ" fill="rgb(16,50,91)" style="transform: none;"><g style="transform: none;"><path id="pNXZ9qGVa" d="M91.407 339.332c-0.825 -0.388 -2.135 -1.407 -2.911 -2.183 -1.31 -1.359 -1.407 -1.747 -1.407 -4.949l0.049 -3.493 11.547 -21.59c6.356 -11.887 16.836 -31.391 23.24 -43.423 6.404 -11.984 13.876 -25.957 16.593 -31.051 2.717 -5.046 6.501 -12.178 8.393 -15.768s3.784 -6.987 4.172 -7.52c0.679 -0.97 4.415 -1.698 18.97 -3.833 2.668 -0.388 10.092 -1.601 16.496 -2.668 11.644 -1.941 17.272 -2.766 37.359 -5.386 5.871 -0.776 14.846 -1.989 19.892 -2.62 5.094 -0.679 9.461 -1.261 9.752 -1.261s1.019 0.922 1.65 2.038c0.631 1.165 2.038 3.639 3.154 5.482 1.116 1.892 3.202 5.58 4.706 8.248s5.386 9.655 8.636 15.526c3.299 5.871 6.453 11.547 7.035 12.614s2.523 4.56 4.366 7.763c1.795 3.202 4.852 8.685 6.792 12.129 1.941 3.493 4.172 7.375 5.046 8.685 0.825 1.359 1.504 2.62 1.504 2.862 0 0.339 -9.607 0.388 -26.103 0.194 -14.41 -0.145 -26.345 -0.097 -26.588 0.049 -0.291 0.194 -7.86 14.846 -16.884 32.604s-16.981 33.04 -17.709 33.962 -2.329 2.232 -3.493 2.911l-2.135 1.213 -55.31 0.097c-49.148 0.097 -55.455 0.049 -56.814 -0.631"/></g></g></svg>