<svg class="img-fluid" id="outputsvg" xmlns="http://www.w3.org/2000/svg" style="transform: none; cursor: move;" width="256" height="166.625" viewBox="0 0 2560 1666.246"><g id="likx8agavuPfaNNK3UuTgS" fill="rgb(242,247,253)" style="transform: none;"><g style="transform: none;"><path id="p1EjuXBo5a" d="M57.039 1095.635c-0.674 -1.123 -2.021 -1.572 -3.144 -0.898 -0.898 0.674 -2.919 -0.225 -4.267 -2.021 -2.021 -2.246 6.512 -5.839 44.239 -18.189 25.6 -8.309 48.505 -15.495 50.975 -15.944 12.126 -1.796 32.561 -6.063 42.442 -8.982 6.063 -1.796 17.067 -3.144 24.253 -3.144h13.025v14.596l-23.579 5.389c-14.372 3.368 -23.579 6.512 -23.579 8.309 0 3.368 -10.105 5.614 -60.632 14.147 -47.607 8.084 -58.161 9.207 -59.733 6.737"/></g></g><g id="l5WsSpjxfRnC9lBepF3Arp9" fill="rgb(227,236,250)" style="transform: none;"><g style="transform: none;"><path id="p3Hr3d2NF" d="M167.298 1075.649c-0.674 -1.123 -4.267 -2.246 -8.084 -2.246 -6.288 0 -9.656 -3.593 -3.593 -4.042 7.411 -0.449 62.428 -15.944 57.039 -16.168 -3.368 0 -13.923 2.021 -23.579 4.491 -9.432 2.47 -20.884 4.716 -25.151 4.94 -4.267 0.449 -8.758 1.796 -9.656 2.919 -1.347 1.347 -2.246 1.347 -3.144 -0.449 -0.674 -2.021 -2.246 -2.246 -5.165 -0.674s-4.716 1.572 -5.614 0c-0.674 -1.347 1.123 -3.144 4.042 -4.267 8.533 -3.368 195.818 -63.775 405.782 -130.919 53.67 -17.291 119.916 -38.625 147.088 -47.382 27.172 -8.982 50.975 -15.944 52.772 -15.719s4.267 -1.123 5.389 -3.144c1.572 -2.919 2.246 -2.919 3.818 -0.449 2.919 4.716 2.47 8.758 -1.123 8.758 -1.796 0 -3.593 1.347 -4.267 2.919 -3.818 10.105 -357.726 127.102 -510.653 168.87 -7.86 2.246 -15.046 5.165 -16.393 6.737 -2.919 3.368 -4.042 3.593 24.702 -3.593 39.972 -9.881 168.646 -36.154 251.958 -51.425 66.246 -11.902 189.305 -31.439 199.86 -31.439 8.084 0 8.084 3.593 0.225 16.618 -4.491 7.186 -7.86 10.105 -11.228 10.33 -3.593 0 -4.716 -0.898 -3.818 -3.368 1.796 -4.491 0 -4.491 -38.625 3.368 -39.074 8.084 -174.26 33.684 -213.109 40.421 -14.821 2.695 -45.137 8.084 -67.368 12.351 -41.544 7.86 -56.814 10.554 -145.965 25.825 -58.835 10.105 -54.344 9.656 -56.14 6.737"/></g></g><g id="l2o5MuxureQ16kDfKZJgKTe" fill="rgb(251,231,102)" style="transform: none;"><g style="transform: none;"><path id="p1HVIbTHEj" d="M1598.204 749.811c-8.533 -15.046 -15.046 -27.396 -14.596 -27.621s12.351 -1.796 26.498 -3.144 66.246 -6.961 115.649 -12.575c82.414 -9.432 123.06 -13.698 269.474 -29.418 28.519 -2.919 111.382 -11.677 184.14 -19.088 135.186 -13.923 269.923 -28.07 289.235 -30.54l10.554 -1.572v139.453l-61.081 0.225c-33.684 0.225 -142.147 1.347 -240.954 2.47 -98.807 1.347 -264.084 3.368 -367.158 4.491s-189.53 2.695 -192 3.368c-4.042 1.123 -6.737 -2.47 -19.761 -26.049"/></g></g><g id="l1dHfswbfJUUDHmba9tQTkv" fill="rgb(252,198,78)" style="transform: none;"><g style="transform: none;"><path id="p170xnUwMw" d="M1576.421 710.961c-5.614 -9.881 -10.105 -19.088 -10.105 -20.435 0 -1.123 -1.572 -3.368 -3.368 -4.94 -2.246 -1.796 -2.695 -3.368 -1.123 -4.716 1.347 -1.347 31.439 -8.758 67.368 -16.842 86.007 -19.537 428.912 -95.214 495.158 -109.361 11.677 -2.695 32.561 -6.961 46.035 -10.105 13.698 -2.919 50.975 -11.004 83.088 -17.965s72.084 -15.719 88.702 -19.088c31.439 -6.737 103.523 -22.681 121.263 -26.723 5.614 -1.347 11.453 -2.47 13.025 -2.47 2.021 0 2.695 16.842 2.695 77.474v77.249l-7.186 1.347c-9.432 1.572 -117.67 13.025 -285.867 30.316 -72.758 7.411 -146.639 15.046 -163.93 17.067 -17.291 1.796 -60.182 6.288 -95.439 10.105 -69.839 7.186 -171.565 18.414 -264.982 28.968 -32.786 3.593 -63.102 7.186 -67.368 7.635 -7.86 0.674 -8.084 0.449 -17.965 -17.516"/></g></g><g id="l3YsaR7TJBTz1nwU2LiE77X" fill="rgb(51,184,237)" style="transform: none;"><g style="transform: none;"><path id="px1BFqBFc" d="M2453.333 1065.095c-18.863 -4.491 -738.358 -164.154 -765.754 -169.993l-22.232 -4.716 -8.309 -14.372c-4.491 -8.084 -9.207 -15.046 -10.554 -15.495 -3.818 -1.123 -3.368 -7.186 0.449 -7.186 6.288 0 6.063 -4.267 -0.898 -16.618 -4.042 -6.961 -6.512 -13.474 -5.839 -14.596s-0.225 -2.47 -2.021 -3.368c-6.737 -2.47 -3.144 -5.839 6.288 -5.839 9.207 0 91.172 8.084 181.221 17.965 22.905 2.47 72.982 7.635 111.158 11.228 38.4 3.818 108.463 10.779 156.07 15.719 76.126 7.86 126.204 13.025 336.842 34.582l48.281 4.716 0.674 86.007 0.449 85.782 -6.063 -0.225c-3.593 -0.225 -12.351 -1.796 -19.761 -3.593"/><path id="pwxFoRaIe" d="M753.179 867.93c1.572 -4.491 82.414 -156.744 158.54 -298.667 32.561 -60.407 82.639 -154.498 111.832 -208.842 28.968 -54.344 61.53 -114.975 72.309 -134.737s30.54 -56.589 43.789 -81.965c13.474 -25.375 26.723 -49.404 29.867 -53.67 11.902 -16.168 36.604 -20.211 53.895 -8.758 8.758 5.839 5.614 0.674 95.439 163.481 26.274 47.607 92.519 167.298 138.554 250.386 53.446 96.786 70.063 127.102 69.389 127.775 -1.347 1.347 -492.688 161.46 -616.196 200.758 -88.702 28.519 -151.354 47.607 -155.172 47.607 -2.246 0 -3.144 -1.347 -2.246 -3.368"/></g></g><g id="l1NVGdtYosN1iVDuCDOLLTJ" fill="rgb(161,213,85)" style="transform: none;"><g style="transform: none;"><path id="p18IGTeXjS" d="M2423.018 899.368c-26.498 -2.919 -93.642 -9.881 -149.333 -15.495 -55.467 -5.614 -139.902 -14.372 -187.509 -19.312s-117.67 -11.902 -156.07 -15.719c-38.175 -3.593 -88.702 -8.758 -112.281 -11.453 -23.354 -2.47 -73.881 -7.86 -112.056 -11.677l-69.389 -7.186 -13.025 -23.579c-7.186 -12.8 -12.351 -24.253 -11.228 -25.375 0.898 -0.898 91.172 -2.919 200.309 -4.042 109.137 -1.347 303.158 -3.593 430.933 -5.165s233.095 -2.47 234.218 -2.021c0.898 0.449 1.572 33.684 1.572 73.881 0 67.818 -0.225 72.758 -3.818 72.533 -2.246 -0.225 -25.825 -2.695 -52.323 -5.389"/></g></g><g id="l7GepLtntMzswX0G80Q1ZbQ" fill="rgb(103,114,209)" style="transform: none;"><g style="transform: none;"><path id="p9obeJisE" d="M2464.561 1234.639c-6.063 -2.47 -65.347 -23.579 -131.368 -47.158 -128.225 -45.361 -138.554 -49.179 -323.368 -114.077 -66.021 -23.354 -157.418 -55.467 -203.004 -71.635 -45.361 -16.168 -83.088 -29.418 -83.761 -29.418 -0.449 0 -0.225 2.021 0.449 4.491 1.123 3.593 0.449 4.491 -4.267 4.491 -3.144 0 -5.839 -0.898 -5.839 -1.796 0 -1.123 -10.105 -20.211 -22.456 -42.667 -16.618 -30.091 -22.456 -42.667 -22.456 -48.73 0 -6.961 0.449 -7.635 3.818 -5.614 2.246 1.347 13.025 4.267 24.253 6.512 15.495 3.144 684.912 151.579 766.428 169.768l16.168 3.818v88.477c0 48.73 -0.674 88.477 -1.572 88.253 -1.123 -0.225 -6.737 -2.246 -13.025 -4.716"/></g></g><g id="l2cQDvcZrdZ2LUgLiE9tDV0" fill="rgb(235,65,61)" style="transform: none;"><g style="transform: none;"><path id="p18K9i4f5e" d="M1551.944 666.498c-6.288 -11.453 -13.923 -25.151 -17.067 -30.316l-5.839 -9.432 10.779 -3.368c14.821 -4.716 38.4 -13.025 61.305 -21.558 10.554 -3.818 30.765 -11.004 44.912 -15.719s42.442 -14.596 62.877 -22.007 42.667 -15.27 49.404 -17.291c11.453 -3.593 44.239 -15.27 62.877 -22.232 14.372 -5.389 23.354 -8.533 58.386 -20.66 19.088 -6.512 44.463 -15.495 56.14 -19.986s27.846 -10.105 35.705 -12.575c7.86 -2.695 28.07 -9.656 44.912 -15.944s49.179 -17.74 72.084 -25.375c22.905 -7.86 53.221 -18.414 67.368 -23.579s44.463 -15.719 67.368 -23.579 50.077 -17.516 60.632 -21.333 24.702 -8.982 31.439 -11.228c66.47 -22.681 89.375 -30.765 121.263 -42.442 20.435 -7.635 38.4 -13.698 39.972 -13.698 2.246 0 2.695 19.986 2.246 95.888l-0.674 95.888 -7.86 1.796c-4.267 0.898 -26.498 5.839 -49.404 10.779 -22.905 5.165 -55.242 12.126 -71.86 15.719 -16.618 3.368 -56.589 12.126 -88.702 19.088s-69.389 15.046 -83.088 17.965c-13.474 3.144 -34.358 7.411 -46.035 10.105 -76.8 16.393 -480.112 105.544 -528.393 116.772 -20.884 4.94 -38.4 8.982 -38.849 8.982 -0.225 0 -5.614 -9.432 -11.902 -20.66"/></g></g><g id="l2UrelrFBl9urA4fJ5aPqUW" fill="rgb(24,60,103)" style="transform: none;"><g style="transform: none;"><path id="pkF2WyvnT" d="M1518.035 1572.154c-21.109 -6.512 -28.744 -15.719 -51.874 -61.305 -17.965 -36.154 -85.109 -167.074 -118.568 -231.298 -9.432 -18.189 -18.414 -33.235 -19.761 -33.235 -1.572 0 -2.919 -1.572 -2.919 -3.368 0 -2.695 3.368 -3.368 17.067 -3.368h17.067l-3.368 -5.165c-1.796 -2.695 -10.779 -18.639 -19.986 -35.256 -9.432 -16.618 -23.804 -42.442 -32.112 -57.263 -8.533 -14.821 -17.516 -30.989 -20.211 -35.93s-13.923 -25.151 -25.151 -44.912 -26.274 -46.933 -33.684 -60.632c-17.291 -31.214 -28.295 -50.751 -42.891 -75.902 -13.923 -23.579 -14.596 -27.846 -4.267 -29.418 22.232 -3.368 234.442 -23.579 295.747 -28.295 15.495 -1.123 45.361 -3.593 66.246 -5.389 77.923 -6.512 107.789 -8.758 112.056 -7.86 3.593 0.674 17.067 20.66 23.579 34.582 2.021 4.716 14.147 26.723 72.084 131.368 12.575 22.905 37.277 67.368 54.568 98.807 95.663 174.035 192 348.968 200.309 363.789 19.312 34.358 25.825 48.954 25.825 58.835 0 13.025 -6.737 23.579 -18.639 28.744 -9.207 4.267 -17.291 4.491 -247.467 4.267 -130.919 0 -240.505 -0.898 -243.649 -1.796"/></g></g><g id="l4OKPx0IeZG0goXLRNiD1qZ" fill="rgb(16,50,91)" style="transform: none;"><g style="transform: none;"><path id="pNXZ9qGVa" d="M423.074 1570.582c-3.818 -1.796 -9.881 -6.512 -13.474 -10.105 -6.063 -6.288 -6.512 -8.084 -6.512 -22.905l0.225 -16.168 53.446 -99.93c29.418 -55.018 77.923 -145.291 107.565 -200.982 29.642 -55.467 64.225 -120.14 76.8 -143.719 12.575 -23.354 30.091 -56.365 38.849 -72.982s17.516 -32.337 19.312 -34.807c3.144 -4.491 20.435 -7.86 87.804 -17.74 12.351 -1.796 46.709 -7.411 76.351 -12.351 53.895 -8.982 79.944 -12.8 172.912 -24.926 27.172 -3.593 68.716 -9.207 92.07 -12.126 23.579 -3.144 43.789 -5.839 45.137 -5.839s4.716 4.267 7.635 9.432c2.919 5.389 9.432 16.842 14.596 25.375 5.165 8.758 14.821 25.825 21.782 38.175s24.926 44.688 39.972 71.86c15.27 27.172 29.867 53.446 32.561 58.386s11.677 21.109 20.211 35.93c8.309 14.821 22.456 40.196 31.439 56.14 8.982 16.168 19.312 34.133 23.354 40.196 3.818 6.288 6.961 12.126 6.961 13.249 0 1.572 -44.463 1.796 -120.814 0.898 -66.695 -0.674 -121.937 -0.449 -123.06 0.225 -1.347 0.898 -36.379 68.716 -78.147 150.905s-78.596 152.926 -81.965 157.193 -10.779 10.33 -16.168 13.474l-9.881 5.614 -256 0.449c-227.481 0.449 -256.674 0.225 -262.961 -2.919"/></g></g></svg>