<svg class="img-fluid" id="outputsvg" xmlns="http://www.w3.org/2000/svg" style="transform: none; cursor: move;" width="1140" height="742" viewBox="0 0 11400 7420">
  
  <g id="likx8agavuPfaNNK3UuTgS" fill="rgb(242,247,253)" style="transform: none;">
    <g style="transform: none;">
      <path id="p1EjuXBo5a" d="M254 4879 c-3 -5 -9 -7 -14 -4 -4 3 -13 -1 -19 -9 -9 -10 29 -26 197 -81 114 -37 216 -69 227 -71 54 -8 145 -27 189 -40 27 -8 76 -14 108 -14 l58 0 0 33 0 32 -105 24 c-64 15 -105 29 -105 37 0 15 -45 25 -270 63 -212 36 -259 41 -266 30z"/>
    </g>
  </g>
  <g id="l5WsSpjxfRnC9lBepF3Arp9" fill="rgb(227,236,250)" style="transform: none;">
    <g style="transform: none;">
      <path id="p3Hr3d2NF" d="M745 4790 c-3 -5 -19 -10 -36 -10 -28 0 -43 -16 -16 -18 33 -2 278 -71 254 -72 -15 0 -62 9 -105 20 -42 11 -93 21 -112 22 -19 2 -39 8 -43 13 -6 6 -10 6 -14 -2 -3 -9 -10 -10 -23 -3 -13 7 -21 7 -25 0 -3 -6 5 -14 18 -19 38 -15 872 -284 1807 -583 239 -77 534 -172 655 -211 121 -40 227 -71 235 -70 8 1 19 -5 24 -14 7 -13 10 -13 17 -2 13 21 11 39 -5 39 -8 0 -16 6 -19 13 -17 45 -1593 566 -2274 752 -35 10 -67 23 -73 30 -13 15 -18 16 110 -16 178 -44 751 -161 1122 -229 295 -53 843 -140 890 -140 36 0 36 16 1 74 -20 32 -35 45 -50 46 -16 0 -21 -4 -17 -15 8 -20 0 -20 -172 15 -174 36 -776 150 -949 180 -66 12 -201 36 -300 55 -185 35 -253 47 -650 115 -262 45 -242 43 -250 30z"/>
    </g>
  </g>
  <g id="l2o5MuxureQ16kDfKZJgKTe" fill="rgb(251,231,102)" style="transform: none;">
    <g style="transform: none;">
      <path id="p1HVIbTHEj" d="M7117 3339 c-38 -67 -67 -122 -65 -123 2 -1 55 -8 118 -14 63 -6 295 -31 515 -56 367 -42 548 -61 1200 -131 127 -13 496 -52 820 -85 602 -62 1202 -125 1288 -136 l47 -7 0 311 0 310 -272 1 c-150 1 -633 6 -1073 11 -440 6 -1176 15 -1635 20 -459 5 -844 12 -855 15 -18 5 -30 -11 -88 -116z"/>
    </g>
  </g>
  <g id="l1dHfswbfJUUDHmba9tQTkv" fill="rgb(252,198,78)" style="transform: none;">
    <g style="transform: none;">
      <path id="p170xnUwMw" d="M7020 3166 c-25 -44 -45 -85 -45 -91 0 -5 -7 -15 -15 -22 -10 -8 -12 -15 -5 -21 6 -6 140 -39 300 -75 383 -87 1910 -424 2205 -487 52 -12 145 -31 205 -45 61 -13 227 -49 370 -80 143 -31 321 -70 395 -85 140 -30 461 -101 540 -119 25 -6 51 -11 58 -11 9 0 12 75 12 345 l0 344 -32 6 c-42 7 -524 58 -1273 135 -324 33 -653 67 -730 76 -77 8 -268 28 -425 45 -311 32 -764 82 -1180 129 -146 16 -281 32 -300 34 -35 3 -36 2 -80 -78z"/>
    </g>
  </g>
  <g id="l3YsaR7TJBTz1nwU2LiE77X" fill="rgb(51,184,237)" style="transform: none;">
    <g style="transform: none;">
      <path id="px1BFqBFc" d="M10925 4743 c-84 -20 -3288 -731 -3410 -757 l-99 -21 -37 -64 c-20 -36 -41 -67 -47 -69 -17 -5 -15 -32 2 -32 28 0 27 -19 -4 -74 -18 -31 -29 -60 -26 -65 3 -5 -1 -11 -9 -15 -30 -11 -14 -26 28 -26 41 0 406 36 807 80 102 11 325 34 495 50 171 17 483 48 695 70 339 35 562 58 1500 154 l215 21 3 383 2 382 -27 -1 c-16 -1 -55 -8 -88 -16z"/>
      <path id="pwxFoRaIe" d="M3354 3865 c7 -20 367 -698 706 -1330 145 -269 368 -688 498 -930 129 -242 274 -512 322 -600 48 -88 136 -252 195 -365 60 -113 119 -220 133 -239 53 -72 163 -90 240 -39 39 26 25 3 425 728 117 212 412 745 617 1115 238 431 312 566 309 569 -6 6 -2194 719 -2744 894 -395 127 -674 212 -691 212 -10 0 -14 -6 -10 -15z"/>
    </g>
  </g>
  <g id="l1NVGdtYosN1iVDuCDOLLTJ" fill="rgb(161,213,85)" style="transform: none;">
    <g style="transform: none;">
      <path id="p18IGTeXjS" d="M10790 4005 c-118 -13 -417 -44 -665 -69 -247 -25 -623 -64 -835 -86 -212 -22 -524 -53 -695 -70 -170 -16 -395 -39 -500 -51 -104 -11 -329 -35 -499 -52 l-309 -32 -58 -105 c-32 -57 -55 -108 -50 -113 4 -4 406 -13 892 -18 486 -6 1350 -16 1919 -23 569 -7 1038 -11 1043 -9 4 2 7 150 7 329 0 302 -1 324 -17 323 -10 -1 -115 -12 -233 -24z"/>
    </g>
  </g>
  <g id="l7GepLtntMzswX0G80Q1ZbQ" fill="rgb(103,114,209)" style="transform: none;">
    <g style="transform: none;">
      <path id="p9obeJisE" d="M10975 5498 c-27 -11 -291 -105 -585 -210 -571 -202 -617 -219 -1440 -508 -294 -104 -701 -247 -904 -319 -202 -72 -370 -131 -373 -131 -2 0 -1 9 2 20 5 16 2 20 -19 20 -14 0 -26 -4 -26 -8 0 -5 -45 -90 -100 -190 -74 -134 -100 -190 -100 -217 0 -31 2 -34 17 -25 10 6 58 19 108 29 69 14 3050 675 3413 756 l72 17 0 394 c0 217 -3 394 -7 393 -5 -1 -30 -10 -58 -21z"/>
    </g>
  </g>
  <g id="l2cQDvcZrdZ2LUgLiE9tDV0" fill="rgb(235,65,61)" style="transform: none;">
    <g style="transform: none;">
      <path id="p18K9i4f5e" d="M6911 2968 c-28 -51 -62 -112 -76 -135 l-26 -42 48 -15 c66 -21 171 -58 273 -96 47 -17 137 -49 200 -70 63 -21 189 -65 280 -98 91 -33 190 -68 220 -77 51 -16 197 -68 280 -99 64 -24 104 -38 260 -92 85 -29 198 -69 250 -89 52 -20 124 -45 159 -56 35 -12 125 -43 200 -71 75 -28 219 -79 321 -113 102 -35 237 -82 300 -105 63 -23 198 -70 300 -105 102 -35 223 -78 270 -95 47 -17 110 -40 140 -50 296 -101 398 -137 540 -189 91 -34 171 -61 178 -61 10 0 12 89 10 427 l-3 427 -35 8 c-19 4 -118 26 -220 48 -102 23 -246 54 -320 70 -74 15 -252 54 -395 85 -143 31 -309 67 -370 80 -60 14 -153 33 -205 45 -342 73 -2138 470 -2353 520 -93 22 -171 40 -173 40 -1 0 -25 -42 -53 -92z"/>
    </g>
  </g>
  <g id="l2UrelrFBl9urA4fJ5aPqUW" fill="rgb(24,60,103)" style="transform: none;">
    <g style="transform: none;">
      <path id="pkF2WyvnT" d="M6760 7001 c-94 -29 -128 -70 -231 -273 -80 -161 -379 -744 -528 -1030 -42 -81 -82 -148 -88 -148 -7 0 -13 -7 -13 -15 0 -12 15 -15 76 -15 l76 0 -15 -23 c-8 -12 -48 -83 -89 -157 -42 -74 -106 -189 -143 -255 -38 -66 -78 -138 -90 -160 -12 -22 -62 -112 -112 -200 -50 -88 -117 -209 -150 -270 -77 -139 -126 -226 -191 -338 -62 -105 -65 -124 -19 -131 99 -15 1044 -105 1317 -126 69 -5 202 -16 295 -24 347 -29 480 -39 499 -35 16 3 76 92 105 154 9 21 63 119 321 585 56 102 166 300 243 440 426 775 855 1554 892 1620 86 153 115 218 115 262 0 58 -30 105 -83 128 -41 19 -77 20 -1102 19 -583 0 -1071 -4 -1085 -8z"/>
    </g>
  </g>
  <g id="l4OKPx0IeZG0goXLRNiD1qZ" fill="rgb(16,50,91)" style="transform: none;">
    <g style="transform: none;">
      <path id="pNXZ9qGVa" d="M1884 6994 c-17 -8 -44 -29 -60 -45 -27 -28 -29 -36 -29 -102 l1 -72 238 -445 c131 -245 347 -647 479 -895 132 -247 286 -535 342 -640 56 -104 134 -251 173 -325 39 -74 78 -144 86 -155 14 -20 91 -35 391 -79 55 -8 208 -33 340 -55 240 -40 356 -57 770 -111 121 -16 306 -41 410 -54 105 -14 195 -26 201 -26 6 0 21 19 34 42 13 24 42 75 65 113 23 39 66 115 97 170 31 55 111 199 178 320 68 121 133 238 145 260 12 22 52 94 90 160 37 66 100 179 140 250 40 72 86 152 104 179 17 28 31 54 31 59 0 7 -198 8 -538 4 -297 -3 -543 -2 -548 1 -6 4 -162 306 -348 672 -186 366 -350 681 -365 700 -15 19 -48 46 -72 60 l-44 25 -1140 2 c-1013 2 -1143 1 -1171 -13z"/>
    </g>
  </g>
</svg>
